<svg width="24" height="24" viewBox="0 0 24 24" fill="none" xmlns="http://www.w3.org/2000/svg">
<g clip-path="url(#clip0_5150_35006)">
<path fill-rule="evenodd" clip-rule="evenodd" d="M23.2588 11.8423C23.2588 18.0606 18.2178 23.1015 11.9995 23.1015C5.78118 23.1015 0.740234 18.0606 0.740234 11.8423C0.740234 5.62395 5.78118 0.583008 11.9995 0.583008C18.2178 0.583008 23.2588 5.62395 23.2588 11.8423ZM10.0243 6.86922C9.6235 6.78365 9.18034 6.74042 8.69484 6.74042H3.89301V16.9449H8.83896C9.28933 16.9458 9.7388 16.8881 10.1748 16.7737C10.608 16.6593 10.9935 16.4837 11.3322 16.245C11.6709 16.0072 11.9402 15.7001 12.1402 15.3235C12.3401 14.947 12.4401 14.5012 12.4401 13.9869C12.4401 13.3482 12.2852 12.8024 11.9753 12.3502C11.6655 11.898 11.1962 11.581 10.5675 11.3999C11.0241 11.1811 11.37 10.9 11.6033 10.5568C11.8366 10.2137 11.9537 9.78491 11.9537 9.27059C11.9537 8.7941 11.8753 8.39417 11.7177 8.06991C11.5601 7.74564 11.3385 7.48623 11.053 7.29077C10.7674 7.09531 10.4252 6.95479 10.0243 6.86922ZM8.40931 10.8703C8.80924 10.8703 9.13801 10.7748 9.39562 10.5848C9.65323 10.3938 9.78203 10.0849 9.78113 9.65611C9.78113 9.41831 9.7379 9.22285 9.65233 9.07062C9.56676 8.9184 9.45236 8.7986 9.30915 8.71303C9.16593 8.62746 9.002 8.56801 8.81644 8.53469C8.62549 8.50136 8.43183 8.48424 8.23727 8.48515H6.13765V10.8721L8.40931 10.8703ZM8.53812 15.2001C8.74979 15.201 8.96056 15.1794 9.16683 15.1362C9.36679 15.093 9.54334 15.0218 9.69556 14.9218C9.84779 14.8218 9.96939 14.6858 10.0604 14.5147C10.1504 14.3435 10.1964 14.1238 10.1964 13.8571C10.1964 13.3338 10.0487 12.9591 9.75321 12.7357C9.45777 12.5114 9.06685 12.3998 8.58135 12.3998H6.13765V15.201L8.53812 15.2001ZM15.263 14.9858C15.5675 15.2812 16.0061 15.4289 16.5781 15.4289C16.9879 15.4289 17.3401 15.3263 17.6356 15.1218C17.931 14.9173 18.1121 14.7002 18.1787 14.4715H19.9649C19.6793 15.3578 19.2407 15.991 18.6498 16.372C18.0589 16.753 17.3446 16.944 16.506 16.944C15.9251 16.944 15.4008 16.8512 14.9343 16.6656C14.4677 16.4801 14.0722 16.2153 13.748 15.8721C13.4237 15.5289 13.1733 15.12 12.9977 14.6435C12.822 14.167 12.7338 13.6428 12.7338 13.0717C12.7338 12.5196 12.8238 12.0052 13.0049 11.5287C13.1859 11.0522 13.4435 10.6406 13.7768 10.2929C14.1101 9.94524 14.5082 9.67142 14.9703 9.47145C15.4324 9.27149 15.9449 9.17151 16.5069 9.17151C17.1357 9.17151 17.6833 9.29311 18.1508 9.53631C18.6174 9.77951 19.0011 10.1056 19.301 10.5154C19.601 10.9252 19.8181 11.3918 19.9514 11.9161C20.0847 12.4403 20.1324 12.9879 20.0946 13.5599H14.764C14.7919 14.2147 14.9586 14.6912 15.263 14.9858ZM16.4493 10.6992C16.9447 10.6992 17.314 10.8325 17.5572 11.0991C17.7995 11.3657 17.9688 11.7566 18.0652 12.27H14.764C14.773 12.1277 14.8045 11.9656 14.8568 11.7845C14.909 11.6035 14.9991 11.4324 15.1279 11.2702C15.2567 11.1081 15.4279 10.973 15.6422 10.8631C15.8557 10.7541 16.125 10.6992 16.4493 10.6992ZM18.5408 7.25834H14.4163V8.40228H18.5408V7.25834Z" fill="#787CA9"/>
</g>
<defs>
<clipPath id="clip0_5150_35006">
<rect width="22.5185" height="22.5185" fill="white" transform="translate(0.740234 0.583008)"/>
</clipPath>
</defs>
</svg>
