<svg width="20" height="20" viewBox="0 0 20 20" fill="none" xmlns="http://www.w3.org/2000/svg">
<path fill-rule="evenodd" clip-rule="evenodd" d="M1.91906 0.398438C1.14528 0.398438 0.517578 1.0046 0.517578 1.75137V17.9331C0.517578 18.6799 1.14536 19.2855 1.91906 19.2855H18.0791C18.8531 19.2855 19.4805 18.6798 19.4805 17.9328V1.75137C19.4805 1.0046 18.8531 0.398438 18.0791 0.398438H1.91906ZM6.46761 5.072C6.46761 5.88799 5.85168 6.54092 4.86235 6.54092L4.84376 6.54085C3.89138 6.54085 3.27568 5.88791 3.27568 5.07193C3.27568 4.23743 3.90998 3.60272 4.88116 3.60272C5.85168 3.60272 6.44909 4.23743 6.46761 5.072ZM6.28057 16.2047V7.70167H3.44294V16.2047H6.28057ZM10.6887 16.2047H7.85124C7.85124 16.2047 7.88843 8.49965 7.85139 7.70196H10.6889V8.90553L10.67 8.93471H10.6889V8.90553C11.0661 8.32627 11.7411 7.50232 13.2463 7.50232C15.1132 7.50232 16.5129 8.71766 16.5129 11.3293V16.2047H13.6755V11.6563C13.6755 10.5131 13.2647 9.73343 12.2381 9.73343C11.4541 9.73343 10.9872 10.2592 10.7821 10.7672C10.7072 10.9485 10.6887 11.2029 10.6887 11.4567V16.2047Z" fill="#787CA9"/>
</svg>
