<svg width="32" height="33" viewBox="0 0 32 33" fill="none" xmlns="http://www.w3.org/2000/svg">
<g clip-path="url(#clip0_5150_35008)">
<path d="M26.6318 20.5463C27.0372 19.3858 27.2584 18.1394 27.2584 16.8422C27.2584 15.545 27.0372 14.2987 26.6318 13.1381C26.6219 13.1032 26.6101 13.0692 26.5959 13.0365C25.0321 8.69543 20.8726 5.58301 15.9993 5.58301C11.126 5.58301 6.96647 8.69543 5.40272 13.0365C5.38852 13.0693 5.37669 13.1032 5.36689 13.1381C4.96146 14.2987 4.74023 15.545 4.74023 16.8422C4.74023 18.1394 4.96146 19.3858 5.36689 20.5463C5.37679 20.5812 5.38852 20.6152 5.40272 20.6479C6.96657 24.9891 11.126 28.1014 15.9993 28.1014C20.8726 28.1014 25.0321 24.989 26.5959 20.6479C26.6101 20.6152 26.6219 20.5813 26.6318 20.5463ZM15.9993 26.4875C15.5705 26.4875 14.8792 25.7115 14.3014 23.9779C14.0225 23.1413 13.7992 22.1796 13.6366 21.1334H18.3621C18.1994 22.1796 17.9761 23.1412 17.6974 23.9779C17.1194 25.7115 16.4281 26.4875 15.9993 26.4875ZM13.4407 19.5194C13.3631 18.6588 13.3222 17.761 13.3222 16.8422C13.3222 15.9234 13.3631 15.0256 13.4407 14.165H18.5578C18.6354 15.0256 18.6764 15.9234 18.6764 16.8422C18.6764 17.761 18.6354 18.6588 18.5578 19.5194H13.4407ZM6.35412 16.8423C6.35412 15.9137 6.48636 15.0155 6.73244 14.1651H11.8219C11.7465 15.0435 11.7082 15.9437 11.7082 16.8423C11.7082 17.741 11.7464 18.6412 11.8219 19.5195H6.73244C6.48636 18.669 6.35412 17.7709 6.35412 16.8423ZM15.9993 7.197C16.4281 7.197 17.1195 7.97301 17.6974 9.70665C17.9761 10.5432 18.1995 11.505 18.3621 12.551H13.6364C13.7991 11.5049 14.0224 10.5432 14.3013 9.70665C14.8792 7.97301 15.5705 7.197 15.9993 7.197ZM20.1767 14.1651H25.2661C25.5122 15.0155 25.6444 15.9137 25.6444 16.8423C25.6444 17.7709 25.5122 18.6691 25.2661 19.5195H20.1767C20.2521 18.6412 20.2904 17.741 20.2904 16.8423C20.2904 15.9437 20.2521 15.0435 20.1767 14.1651ZM24.6355 12.5511H19.9915C19.7044 10.5716 19.2119 8.79571 18.521 7.53228C21.1997 8.25847 23.419 10.1125 24.6355 12.5511ZM13.4775 7.53217C12.7866 8.7956 12.2941 10.5715 12.0071 12.5511H7.36308C8.5797 10.1125 10.7988 8.25847 13.4775 7.53217ZM7.36308 21.1334H12.0071C12.2941 23.1129 12.7866 24.8888 13.4775 26.1524C10.7988 25.4261 8.5797 23.5721 7.36308 21.1334ZM18.521 26.1524C19.2119 24.8889 19.7044 23.113 19.9915 21.1334H24.6355C23.419 23.5721 21.1997 25.4261 18.521 26.1524Z" fill="#787CA9"/>
</g>
<defs>
<clipPath id="clip0_5150_35008">
<rect width="22.5185" height="22.5185" fill="white" transform="translate(4.74023 5.58301)"/>
</clipPath>
</defs>
</svg>
