<svg width="21" height="20" viewBox="0 0 21 20" fill="none" xmlns="http://www.w3.org/2000/svg">
<path d="M10.5 20C16.0228 20 20.5 15.5228 20.5 10C20.5 4.47715 16.0228 0 10.5 0C4.97715 0 0.5 4.47715 0.5 10C0.5 15.5228 4.97715 20 10.5 20Z" fill="#E84142"/>
<path d="M14.0276 10.2598C14.374 9.66142 14.9331 9.66142 15.2795 10.2598L17.437 14.0472C17.7835 14.6457 17.5 15.1339 16.8071 15.1339H12.4606C11.7756 15.1339 11.4921 14.6457 11.8307 14.0472L14.0276 10.2598ZM9.85433 2.9685C10.2008 2.37008 10.752 2.37008 11.0984 2.9685L11.5787 3.83465L12.7126 5.82677C12.9882 6.3937 12.9882 7.06299 12.7126 7.62992L8.90945 14.2205C8.56299 14.7559 7.98819 15.0945 7.35039 15.1339H4.19291C3.5 15.1339 3.21654 14.6535 3.56299 14.0472L9.85433 2.9685Z" fill="white"/>
</svg>
