<svg width="32" height="32" viewBox="0 0 32 32" fill="none" xmlns="http://www.w3.org/2000/svg">
<g clip-path="url(#clip0_5182_23404)">
<path d="M26.8749 18.8429L20.4868 7.25064C20.1178 6.58117 19.1541 6.58117 18.7852 7.25064L15.9658 12.367L19.5344 18.8429C19.6093 18.976 19.644 19.1278 19.6343 19.2801C19.6053 19.7121 19.2142 20.0917 18.6841 20.092H18.6846C18.6842 20.092 18.684 20.0921 18.6836 20.0921H17.5284V24.5126C17.5284 24.621 17.5498 24.7284 17.5914 24.8286C17.6329 24.9288 17.6939 25.0198 17.7707 25.0965C17.8475 25.1732 17.9387 25.234 18.0391 25.2755C18.1394 25.317 18.247 25.3384 18.3556 25.3384H20.9165C21.1359 25.3384 21.3463 25.2514 21.5014 25.0965C21.6565 24.9417 21.7437 24.7316 21.7437 24.5126V20.0919H26.024C26.7311 20.092 27.1911 19.4168 26.8749 18.8429Z" fill="white"/>
<path d="M13.1463 7.25065C12.7774 6.58116 11.8137 6.58116 11.4448 7.25065L5.05671 18.8429C4.74051 19.4168 5.20044 20.092 5.90752 20.092H10.1879V24.5126C10.1879 24.7316 10.2751 24.9417 10.4302 25.0965C10.5853 25.2514 10.7957 25.3384 11.0151 25.3384H13.5759C13.7953 25.3384 14.0057 25.2514 14.1609 25.0965C14.316 24.9417 14.4031 24.7316 14.4031 24.5126V20.0921H13.2479C13.2476 20.0921 13.2474 20.092 13.247 20.092H13.2474C12.7174 20.0917 12.3263 19.7121 12.2972 19.2801C12.2876 19.1278 12.3223 18.976 12.3971 18.8429L15.9657 12.367L13.1463 7.25065Z" fill="white"/>
</g>
<defs>
<clipPath id="clip0_5182_23404">
<rect width="22.6631" height="18.963" fill="white" transform="translate(4.74072 6.51855)"/>
</clipPath>
</defs>
</svg>
