<svg width="36" height="52" viewBox="0 0 36 52" fill="none" xmlns="http://www.w3.org/2000/svg">
<rect width="36" height="52" rx="18" fill="#1B1B2C"/>
<path d="M16.5 20.8008C16.5 21.6292 17.1716 22.3008 18 22.3008C18.8284 22.3008 19.5 21.6292 19.5 20.8008H16.5ZM19.0607 18.7001C18.4749 18.1143 17.5251 18.1143 16.9393 18.7001L7.3934 28.2461C6.80761 28.8318 6.80761 29.7816 7.3934 30.3674C7.97919 30.9532 8.92893 30.9532 9.51472 30.3674L18 21.8821L26.4853 30.3674C27.0711 30.9532 28.0208 30.9532 28.6066 30.3674C29.1924 29.7816 29.1924 28.8318 28.6066 28.2461L19.0607 18.7001ZM19.5 20.8008V19.7608H16.5V20.8008H19.5Z" fill="#30D1FF"/>
</svg>
