<svg width="36" height="32" viewBox="0 0 36 32" fill="none" xmlns="http://www.w3.org/2000/svg">
<rect width="36" height="32" rx="16" fill="#1B1B2C"/>
<path d="M16.5 12.8008C16.5 13.6292 17.1716 14.3008 18 14.3008C18.8284 14.3008 19.5 13.6292 19.5 12.8008H16.5ZM19.0607 11.1001C18.4749 10.5143 17.5251 10.5143 16.9393 11.1001L7.3934 20.6461C6.80761 21.2318 6.80761 22.1816 7.3934 22.7674C7.97919 23.3532 8.92893 23.3532 9.51472 22.7674L18 14.2821L26.4853 22.7674C27.0711 23.3532 28.0208 23.3532 28.6066 22.7674C29.1924 22.1816 29.1924 21.2318 28.6066 20.6461L19.0607 11.1001ZM19.5 12.8008V12.1608H16.5V12.8008H19.5Z" fill="#30D1FF"/>
</svg>
